<mxfile host="app.diagrams.net" modified="2023-09-21T08:27:28.987Z" agent="Mozilla/5.0 (Macintosh; Intel Mac OS X 10_15_7) AppleWebKit/537.36 (KHTML, like Gecko) Chrome/117.0.0.0 Safari/537.36" version="21.5.2" etag="aVSkL6VdWog0IrFdeWT4" type="github">
  <diagram name="Page-1" id="ElCRpYsMf98x-L3ldlsv">
    <mxGraphModel>
      <root>
        <mxCell id="0" />
        <mxCell id="1" parent="0" />
      </root>
    </mxGraphModel>
  </diagram>
</mxfile>
